<?xml version="1.0" encoding="UTF-8"?>
<svg width="180px" height="34px" viewBox="0 0 180 34" version="1.1" xmlns="http://www.w3.org/2000/svg" xmlns:xlink="http://www.w3.org/1999/xlink">
    <!-- Generator: Sketch 45.2 (43514) - http://www.bohemiancoding.com/sketch -->
    <title>Artboard</title>
    <desc>Created with Sketch.</desc>
    <defs></defs>
    <g id="Page-1" stroke="none" stroke-width="1" fill="none" fill-rule="evenodd">
        <rect id="Rectangle" fill="#00AFD7" x="0" y="0" width="180" height="34" rx="4"></rect>
        <g id="Artboard" fill="#FFFFFF">
            <g id="logo-white" transform="translate(8.000000, 8.000000)" fill-rule="nonzero">
                <path d="M7.53824691,6.09400334 C7.99617779,5.70652336 8.41888323,5.31904338 8.87681411,4.96678885 C8.52455959,4.72021068 8.20753051,4.50885796 7.89050143,4.29750525 C7.50302145,4.61453432 7.11554147,4.96678885 6.72806149,5.31904338 C7.11554147,5.45994519 7.39734509,5.74174881 7.53824691,6.09400334 Z" id="Shape"></path>
                <ellipse id="Oval" transform="translate(6.411012, 6.411018) rotate(0.151110) translate(-6.411012, -6.411018) " cx="6.41101163" cy="6.41101845" rx="1.51469974" ry="1.44424859"></ellipse>
                <path d="M7.78482508,14.5128866 C5.70652336,15.6401011 3.91002526,15.9219047 3.09983985,15.1469447 C1.97262536,14.0549557 2.99416349,11.201694 5.45994519,8.31320687 C5.07246521,8.20753051 4.75543613,7.92572689 4.57930887,7.57347236 C0.986312679,11.589174 -0.634058151,15.6401011 0.951087226,17.1547955 C2.25442898,18.4229118 5.38949428,17.577501 8.84158866,15.323072 C8.48933413,15.0764938 8.1370796,14.7946902 7.78482508,14.5128866 Z" id="Shape"></path>
                <path d="M10.2506068,4.89633794 C10.3562831,4.50885796 10.6380868,4.19182889 10.9903413,4.01570162 C6.83373785,0.598832698 2.60668351,-0.915861774 1.02153813,0.598832698 C-0.281803623,1.866949 0.563607245,4.86111249 2.92371259,8.17230506 C3.20551621,7.82005053 3.48731983,7.50302145 3.76912345,7.15076692 C2.60668351,5.14291611 2.28965443,3.41686892 3.09983985,2.60668351 C4.26227979,1.51469447 7.22121783,2.5362326 10.2506068,4.89633794 Z" id="Shape"></path>
                <path d="M13.068643,5.88265062 C12.9277412,6.23490515 12.6107121,6.51670877 12.2584576,6.65761059 C12.7868394,7.18599238 13.2799957,7.67914872 13.7027012,8.20753051 C13.9492793,7.89050143 14.1958575,7.57347236 14.3719848,7.25644328 C13.9845048,6.7985124 13.5265739,6.34058151 13.068643,5.88265062 Z" id="Shape"></path>
                <path d="M12.2232321,7.29166874 C13.068643,7.29166874 13.7379266,6.65761059 13.7379266,5.84742517 C13.7379266,5.03723976 13.068643,4.4031816 12.2232321,4.4031816 C11.3778213,4.4031816 10.7085377,5.03723976 10.7085377,5.84742517 C10.7085377,6.62238513 11.3778213,7.29166874 12.2232321,7.29166874 Z" id="Shape"></path>
                <path d="M16.1332574,2.64190896 C17.2604719,3.733898 16.2389338,6.58715968 13.7731521,9.47564681 C14.160632,9.58132317 14.4776611,9.86312679 14.6537884,10.2153813 C18.2115591,6.1996797 19.8319299,2.11352717 18.2467846,0.598832698 C16.9434428,-0.634058151 13.8083775,0.211352717 10.3915086,2.4657817 C10.7437631,2.71235987 11.0960176,2.99416349 11.4482722,3.27596711 C13.5265739,2.14875262 15.323072,1.866949 16.1332574,2.64190896 Z" id="Shape"></path>
                <path d="M11.9414285,11.4482722 C11.4130467,11.9414285 10.8494395,12.3993594 10.3210577,12.8220648 C10.6733122,13.068643 10.9903413,13.2799957 11.3425958,13.4913484 C11.8357522,13.1038685 12.293683,12.681163 12.7868394,12.2232321 C12.3993594,12.0823303 12.1175558,11.8005267 11.9414285,11.4482722 Z" id="Shape"></path>
                <ellipse id="Oval" transform="translate(12.804328, 11.396196) rotate(-179.842174) translate(-12.804328, -11.396196) " cx="12.8043284" cy="11.3961958" rx="1.51470022" ry="1.44424905"></ellipse>
                <path d="M6.97463966,11.1664685 C6.44625787,10.6380868 5.95310153,10.1449304 5.53039609,9.61654862 C5.28381792,9.9335777 5.03723976,10.2506068 4.86111249,10.5676358 C5.28381792,11.0255667 5.70652336,11.4834976 6.16445425,11.9414285 C6.30535606,11.589174 6.58715968,11.3073704 6.97463966,11.1664685 Z" id="Shape"></path>
                <path d="M16.3093847,9.65177408 C16.027581,10.0040286 15.7457774,10.3210577 15.4639738,10.6733122 C16.6264137,12.681163 16.9434428,14.3719848 16.0980319,15.1821702 C14.935592,16.2741592 11.976654,15.2526211 8.94726502,12.9277412 C8.84158866,13.3152212 8.55978504,13.6322502 8.20753051,13.8083775 C12.3993594,17.2252464 16.6264137,18.7751664 18.2115591,17.2604719 C19.5149009,15.9571301 18.66949,12.9277412 16.3093847,9.65177408 Z" id="Shape"></path>
                <ellipse id="Oval" transform="translate(7.016442, 11.956426) rotate(-89.849725) translate(-7.016442, -11.956426) " cx="7.016442" cy="11.9564258" rx="1.44424853" ry="1.51469968"></ellipse>
            </g>
            <text id="by" opacity="0.795063406" font-family="Helvetica" font-size="13" font-weight="normal">
                <tspan x="91.1350098" y="22">by</tspan>
            </text>
            <text id="Powered" font-family="Helvetica" font-size="13" font-weight="normal">
                <tspan x="33.3459473" y="22">Powered</tspan>
            </text>
            <text id="Cosmic-JS" font-family="Helvetica" font-size="13" font-weight="normal">
                <tspan x="109.940918" y="22">Cosmic JS</tspan>
            </text>
        </g>
    </g>
</svg>